# xmcd
#
# Track frame offsets: 
#        150
#        16443
#        36361
#        52580
#        67137
#        80501
#        105736
#        121412
#        135858
#        151561
#        168430
#        185548
#        199034
#        215415
#        230527
#        242782
#        257504
#        274481
#        292432
#        309789
#
# Disc length: 4305 seconds
#
# Revision: 0
# Processed by: cddbd v1.5.2PL0 Copyright (c) Steve Scherf et al.
# Submitted via: ExactAudioCopy v0.99pb3
#
DISCID=1a10cf14
DTITLE=Duduca e Dalvan - Os Leoes da Musica Sertaneja
DYEAR=2009
DGENRE=Country
TTITLE0=Os Cachaceiros
TTITLE1=Os Coracoes Nao Sao Iguais
TTITLE2=Doce de Batata Doce
TTITLE3=Machao
TTITLE4=Andorinhas
TTITLE5=Perguntas Sem Respostas
TTITLE6=Boate Azul
TTITLE7=Eu Sou Soh Consumidor
TTITLE8=Dama de Vermelho
TTITLE9=Espinheira
TTITLE10=Meus Pedacos
TTITLE11=Vestido de Seda
TTITLE12=Blusa Vermelha
TTITLE13=Telefone Mudo
TTITLE14=Bota Pra Arrepiar
TTITLE15=Saudade da Minha Terra
TTITLE16=Rastros na Areia
TTITLE17=Isabella
TTITLE18=Depois das Seis
TTITLE19=Pintadinha
EXTD=
EXTT0=
EXTT1=
EXTT2=
EXTT3=
EXTT4=
EXTT5=
EXTT6=
EXTT7=
EXTT8=
EXTT9=
EXTT10=
EXTT11=
EXTT12=
EXTT13=
EXTT14=
EXTT15=
EXTT16=
EXTT17=
EXTT18=
EXTT19=
PLAYORDER=
